HIERARCHY
ROOT Hips
{
	OFFSET 0.000000 103.266502 0.000000
	CHANNELS 6 Xposition Yposition Zposition Xrotation Yrotation Zrotation 
	JOINT Spine
	{
		OFFSET -0.002400 12.777504 0.315300
		CHANNELS 3 Xrotation Yrotation Zrotation
		JOINT Spine1
		{
			OFFSET -0.002067 5.816869 0.032633
			CHANNELS 3 Xrotation Yrotation Zrotation
			JOINT Spine1_split
			{
				OFFSET -0.002067 5.816869 0.032633
				CHANNELS 3 Xrotation Yrotation Zrotation
				JOINT Spine2
				{
					OFFSET -0.002067 5.816869 0.032633
					CHANNELS 3 Xrotation Yrotation Zrotation
					JOINT Neck
					{
						OFFSET -0.003700 21.199493 -0.826900
						CHANNELS 3 Xrotation Yrotation Zrotation
						JOINT Head
						{
							OFFSET 0.000000 20.442200 4.834800
							CHANNELS 3 Xrotation Yrotation Zrotation
							JOINT HeadTop_End
							{
								OFFSET 0.000000 34.668396 4.968400
								CHANNELS 3 Xrotation Yrotation Zrotation
								End Site
								{
									OFFSET 0.000000 0.000000 0.000000
								}
							}
						}
					}
					JOINT LeftShoulder
					{
						OFFSET 3.288150 8.794197 -1.372250
						CHANNELS 3 Xrotation Yrotation Zrotation
						JOINT LeftShoulder_split
						{
							OFFSET 3.288150 8.794197 -1.372250
							CHANNELS 3 Xrotation Yrotation Zrotation
							JOINT LeftArm
							{
								OFFSET 11.953299 -2.279007 -0.146200
								CHANNELS 3 Xrotation Yrotation Zrotation
								JOINT LeftForeArm
								{
									OFFSET 18.448900 0.000000 0.000000
									CHANNELS 3 Xrotation Yrotation Zrotation
									JOINT LeftHand
									{
										OFFSET 29.527798 0.000000 0.000000
										CHANNELS 3 Xrotation Yrotation Zrotation
										JOINT LeftHandThumb1
										{
											OFFSET 10.739754 -2.369614 9.225399
											CHANNELS 3 Xrotation Yrotation Zrotation
											JOINT LeftHandThumb2
											{
												OFFSET 4.926170 -2.844131 2.844125
												CHANNELS 3 Xrotation Yrotation Zrotation
												JOINT LeftHandThumb3
												{
													OFFSET 4.614891 -2.664413 2.664409
													CHANNELS 3 Xrotation Yrotation Zrotation
													JOINT LeftHandThumb4
													{
														OFFSET 4.432465 -2.559082 2.559083
														CHANNELS 3 Xrotation Yrotation Zrotation
														End Site
														{
															OFFSET 0.000000 0.000000 0.000000
														}
													}
												}
											}
										}
										JOINT LeftHandIndex1
										{
											OFFSET 26.467674 0.187653 6.405298
											CHANNELS 3 Xrotation Yrotation Zrotation
											JOINT LeftHandIndex2
											{
												OFFSET 8.792900 0.000000 0.000000
												CHANNELS 3 Xrotation Yrotation Zrotation
												JOINT LeftHandIndex3
												{
													OFFSET 10.075203 0.000000 0.000000
													CHANNELS 3 Xrotation Yrotation Zrotation
													End Site
													{
														OFFSET 0.000000 0.000000 0.000000
													}
												}
											}
										}
										JOINT LeftHandMiddle1
										{
											OFFSET 25.764404 0.000000 0.000000
											CHANNELS 3 Xrotation Yrotation Zrotation
											JOINT LeftHandMiddle2
											{
												OFFSET 9.393974 0.000000 0.000000
												CHANNELS 3 Xrotation Yrotation Zrotation
												JOINT LeftHandMiddle3
												{
													OFFSET 10.771950 0.000000 0.000000
													CHANNELS 3 Xrotation Yrotation Zrotation
													End Site
													{
														OFFSET 0.000000 0.000000 0.000000
													}
												}
											}
										}
										JOINT LeftHandRing1
										{
											OFFSET 24.660927 0.144547 -6.225808
											CHANNELS 3 Xrotation Yrotation Zrotation
											JOINT LeftHandRing2
											{
												OFFSET 9.393799 0.000000 0.000000
												CHANNELS 3 Xrotation Yrotation Zrotation
												JOINT LeftHandRing3
												{
													OFFSET 9.928497 0.000000 0.000000
													CHANNELS 3 Xrotation Yrotation Zrotation
													End Site
													{
														OFFSET 0.000000 0.000000 0.000000
													}
												}
											}
										}
										JOINT LeftHandPinky1
										{
											OFFSET 23.655350 0.125290 -12.815412
											CHANNELS 3 Xrotation Yrotation Zrotation
											JOINT LeftHandPinky2
											{
												OFFSET 8.425102 0.000000 0.000000
												CHANNELS 3 Xrotation Yrotation Zrotation
												JOINT LeftHandPinky3
												{
													OFFSET 8.147003 0.000000 0.000000
													CHANNELS 3 Xrotation Yrotation Zrotation
													End Site
													{
														OFFSET 0.000000 0.000000 0.000000
													}
												}
											}
										}
									}
								}
							}
						}
					}
					JOINT RightShoulder
					{
						OFFSET -3.249400 8.794197 -1.372250
						CHANNELS 3 Xrotation Yrotation Zrotation
						JOINT RightShoulder_split
						{
							OFFSET -3.249400 8.794197 -1.372250
							CHANNELS 3 Xrotation Yrotation Zrotation
							JOINT RightArm
							{
								OFFSET -11.953299 -2.279007 -0.146200
								CHANNELS 3 Xrotation Yrotation Zrotation
								JOINT RightForeArm
								{
									OFFSET -18.448900 0.000000 0.000000
									CHANNELS 3 Xrotation Yrotation Zrotation
									JOINT RightHand
									{
										OFFSET -29.527802 0.000000 0.000000
										CHANNELS 3 Xrotation Yrotation Zrotation
										JOINT RightHandThumb1
										{
											OFFSET -10.739754 -2.369614 9.225399
											CHANNELS 3 Xrotation Yrotation Zrotation
											JOINT RightHandThumb2
											{
												OFFSET -4.926170 -2.844131 2.844125
												CHANNELS 3 Xrotation Yrotation Zrotation
												JOINT RightHandThumb3
												{
													OFFSET -4.614891 -2.664413 2.664409
													CHANNELS 3 Xrotation Yrotation Zrotation
													JOINT RightHandThumb4
													{
														OFFSET -4.432465 -2.559082 2.559083
														CHANNELS 3 Xrotation Yrotation Zrotation
														End Site
														{
															OFFSET 0.000000 0.000000 0.000000
														}
													}
												}
											}
										}
										JOINT RightHandIndex1
										{
											OFFSET -26.467674 0.187653 6.405298
											CHANNELS 3 Xrotation Yrotation Zrotation
											JOINT RightHandIndex2
											{
												OFFSET -8.792900 0.000000 0.000000
												CHANNELS 3 Xrotation Yrotation Zrotation
												JOINT RightHandIndex3
												{
													OFFSET -10.075203 0.000000 0.000000
													CHANNELS 3 Xrotation Yrotation Zrotation
													End Site
													{
														OFFSET 0.000000 0.000000 0.000000
													}
												}
											}
										}
										JOINT RightHandMiddle1
										{
											OFFSET -25.764404 0.000000 0.000000
											CHANNELS 3 Xrotation Yrotation Zrotation
											JOINT RightHandMiddle2
											{
												OFFSET -9.393974 0.000000 0.000000
												CHANNELS 3 Xrotation Yrotation Zrotation
												JOINT RightHandMiddle3
												{
													OFFSET -10.771950 0.000000 0.000000
													CHANNELS 3 Xrotation Yrotation Zrotation
													End Site
													{
														OFFSET 0.000000 0.000000 0.000000
													}
												}
											}
										}
										JOINT RightHandRing1
										{
											OFFSET -24.660927 0.144547 -6.225808
											CHANNELS 3 Xrotation Yrotation Zrotation
											JOINT RightHandRing2
											{
												OFFSET -9.393799 0.000000 0.000000
												CHANNELS 3 Xrotation Yrotation Zrotation
												JOINT RightHandRing3
												{
													OFFSET -9.928497 0.000000 0.000000
													CHANNELS 3 Xrotation Yrotation Zrotation
													End Site
													{
														OFFSET 0.000000 0.000000 0.000000
													}
												}
											}
										}
										JOINT RightHandPinky1
										{
											OFFSET -23.655350 0.125290 -12.815412
											CHANNELS 3 Xrotation Yrotation Zrotation
											JOINT RightHandPinky2
											{
												OFFSET -8.425102 0.000000 0.000000
												CHANNELS 3 Xrotation Yrotation Zrotation
												JOINT RightHandPinky3
												{
													OFFSET -8.147003 0.000000 0.000000
													CHANNELS 3 Xrotation Yrotation Zrotation
													End Site
													{
														OFFSET 0.000000 0.000000 0.000000
													}
												}
											}
										}
									}
								}
							}
						}
					}
				}
			}
		}
	}
	JOINT LeftUpLeg
	{
		OFFSET 11.394100 -6.187798 -0.413800
		CHANNELS 3 Xrotation Yrotation Zrotation
		JOINT LeftLeg
		{
			OFFSET 0.430247 -32.302673 3.732800
			CHANNELS 3 Xrotation Yrotation Zrotation
			JOINT LeftFoot
			{
				OFFSET -0.430247 -48.264931 -6.423300
				CHANNELS 3 Xrotation Yrotation Zrotation
				JOINT LeftToeBase
				{
					OFFSET 4.230900 -16.068199 23.438400
					CHANNELS 3 Xrotation Yrotation Zrotation
					JOINT LeftToe_End
					{
						OFFSET 4.510700 0.695400 19.974600
						CHANNELS 3 Xrotation Yrotation Zrotation
						End Site
						{
							OFFSET 0.000000 0.000000 0.000000
						}
					}
				}
			}
		}
	}
	JOINT RightUpLeg
	{
		OFFSET -11.333700 -6.187798 -0.413800
		CHANNELS 3 Xrotation Yrotation Zrotation
		JOINT RightLeg
		{
			OFFSET -0.430392 -32.302628 3.733000
			CHANNELS 3 Xrotation Yrotation Zrotation
			JOINT RightFoot
			{
				OFFSET 0.430392 -48.264973 -6.423500
				CHANNELS 3 Xrotation Yrotation Zrotation
				JOINT RightToeBase
				{
					OFFSET -4.230900 -16.068199 23.438400
					CHANNELS 3 Xrotation Yrotation Zrotation
					JOINT RightToe_End
					{
						OFFSET -4.510700 0.695400 19.974600
						CHANNELS 3 Xrotation Yrotation Zrotation
						End Site
						{
							OFFSET 0.000000 0.000000 0.000000
						}
					}
				}
			}
		}
	}
}
MOTION
Frames: 6
Frame Time: 0.016667
-0.065678 85.303528 -0.139524 -5.398870 -46.271366 -0.212056 9.456608 7.225499 -1.652087 2.187716 0.989899 -0.915631 0.000000 0.000000 0.000000 2.202829 0.982769 -0.894152 0.084651 13.220558 4.538680 8.920925 20.138147 -4.130235 0.000000 0.000000 -0.000000 1.117175 3.546354 -8.633310 0.000000 0.000000 0.000000 -53.487006 4.935510 -51.502983 -0.000113 -106.358080 -0.000105 1.988611 -7.706148 -15.869279 -6.141203 -11.690805 -6.761681 9.914121 42.595512 3.409853 -0.422810 8.108095 27.509108 -0.000001 -0.000000 0.000000 0.255314 3.378221 -45.814337 5.654091 5.847757 -88.067455 0.000003 0.000001 0.000000 -0.461472 3.841592 -39.722676 6.450752 5.820351 -95.892898 0.000001 0.000001 -0.000001 0.469724 4.966833 -39.799444 8.181042 5.368619 -113.502991 -0.000000 -0.000001 0.000001 -3.762423 9.063699 -45.253821 5.342521 5.828997 -85.005311 0.000001 0.000001 0.000001 3.036128 13.027198 -5.371408 0.000000 0.000000 0.000000 -48.713722 27.172830 83.457084 0.000110 105.988301 -0.000120 -8.345386 17.548100 8.775694 -7.341080 13.749665 7.412319 9.855752 -44.489103 -3.903278 -0.115773 -14.513076 -28.973857 0.000000 -0.000001 -0.000001 -0.124370 -2.384787 45.108874 4.500580 -4.654549 88.071137 0.000000 0.000000 0.000002 -0.761616 -2.932899 39.031068 5.133884 -4.632764 95.881663 -0.000001 0.000000 -0.000001 0.154767 -4.068821 39.122682 6.509724 -4.273602 113.462857 0.000000 0.000002 0.000001 -4.198872 -8.025521 44.637789 4.252924 -4.639631 85.014839 -0.000001 -0.000003 0.000003 -38.933403 5.287479 17.886100 58.809650 -5.660344 4.384341 -17.445936 -8.502692 -15.880139 -1.594033 0.000010 -0.000001 -0.000000 -0.000000 -0.000000 -29.905536 -7.026571 -29.148625 58.364130 -9.468449 -7.709949 -19.429289 -5.380459 23.113893 -0.013002 0.000005 -0.000000 0.000000 -0.000000 -0.000000 
0.035538 84.951660 0.410741 -5.081423 -46.549611 -0.000872 9.678990 7.360459 -1.957174 2.062173 1.010599 -0.893727 0.000000 0.000000 0.000000 2.076816 1.004102 -0.874000 0.115997 13.237036 4.673037 8.696455 20.175028 -3.730637 0.000000 0.000001 -0.000000 1.112658 3.581129 -8.635982 0.000000 0.000000 0.000000 -53.210654 4.972763 -51.357241 0.000110 -106.367745 0.000110 2.411215 -7.507507 -16.196291 -6.141202 -11.690809 -6.761677 9.914119 42.595515 3.409850 -0.422808 8.108102 27.509108 0.000002 -0.000003 0.000001 0.255315 3.378222 -45.814334 5.654090 5.847754 -88.067455 -0.000000 0.000000 0.000000 -0.461471 3.841591 -39.722676 6.450752 5.820351 -95.892892 0.000001 0.000000 0.000000 0.469726 4.966834 -39.799444 8.181044 5.368621 -113.502991 -0.000001 -0.000002 -0.000000 -3.762423 9.063702 -45.253818 5.342523 5.828997 -85.005317 -0.000001 -0.000001 0.000000 3.105124 13.142782 -5.328003 0.000000 0.000000 0.000000 -48.727457 27.290289 83.461544 -0.000047 105.913701 0.000067 -8.160897 17.583434 8.793056 -7.341082 13.749668 7.412319 9.855754 -44.489107 -3.903276 -0.115774 -14.513080 -28.973854 0.000001 0.000000 -0.000001 -0.124372 -2.384784 45.108874 4.500581 -4.654549 88.071137 0.000001 -0.000001 0.000000 -0.761619 -2.932898 39.031065 5.133884 -4.632764 95.881670 -0.000001 -0.000000 -0.000001 0.154765 -4.068820 39.122678 6.509723 -4.273601 113.462857 0.000000 0.000002 0.000000 -4.198874 -8.025518 44.637789 4.252921 -4.639629 85.014846 -0.000001 0.000000 0.000000 -39.555838 5.166235 17.687753 60.105344 -5.458766 4.300086 -18.080706 -8.014366 -15.560989 -1.636951 0.000024 0.000003 0.000000 -0.000000 -0.000000 -30.351083 -6.745524 -29.653335 58.812478 -8.697017 -7.661701 -19.509203 -5.747449 23.269172 -0.024333 -0.000016 0.000003 0.000000 0.000000 -0.000000 
0.149249 84.522064 1.003740 -4.839195 -46.923246 0.173821 9.965415 7.492563 -2.195616 1.916819 1.031764 -0.894297 0.000000 0.000000 0.000000 1.931405 1.025006 -0.876845 0.148177 13.275044 4.803506 8.434755 20.259432 -3.299770 0.000000 0.000000 0.000000 1.110769 3.630395 -8.655378 0.000000 0.000000 0.000000 -52.841769 5.112482 -51.141660 0.000156 -106.568047 0.000167 2.622631 -7.353743 -16.403702 -6.141202 -11.690803 -6.761673 9.914125 42.595519 3.409857 -0.422816 8.108098 27.509111 0.000001 -0.000001 0.000000 0.255316 3.378220 -45.814337 5.654091 5.847754 -88.067455 0.000001 0.000001 0.000000 -0.461471 3.841592 -39.722676 6.450754 5.820349 -95.892892 0.000001 0.000000 0.000001 0.469726 4.966832 -39.799444 8.181043 5.368617 -113.502991 -0.000001 -0.000002 -0.000001 -3.762420 9.063699 -45.253818 5.342522 5.828996 -85.005311 -0.000000 -0.000003 -0.000001 3.169173 13.274900 -5.296748 0.000000 0.000000 0.000000 -48.735756 27.444503 83.446176 -0.000001 105.845741 -0.000004 -7.984246 17.693520 8.782187 -7.341080 13.749668 7.412317 9.855748 -44.489107 -3.903273 -0.115773 -14.513080 -28.973864 0.000003 0.000002 0.000000 -0.124371 -2.384786 45.108874 4.500582 -4.654550 88.071137 -0.000001 -0.000000 0.000001 -0.761617 -2.932896 39.031065 5.133881 -4.632767 95.881670 -0.000001 -0.000001 0.000003 0.154765 -4.068819 39.122675 6.509725 -4.273601 113.462857 0.000000 0.000000 0.000000 -4.198875 -8.025520 44.637783 4.252924 -4.639627 85.014846 0.000000 -0.000000 0.000003 -40.290750 5.029349 17.552893 61.664225 -5.162070 4.196097 -18.708194 -7.691761 -15.271917 -1.953560 -0.000002 0.000008 -0.000000 -0.000001 0.000000 -30.903768 -6.447320 -30.227692 59.394936 -7.757604 -7.708073 -19.630066 -6.139138 23.428507 -0.009082 -0.000010 -0.000003 0.000000 0.000000 -0.000001 
0.282531 83.999229 1.657867 -4.723098 -47.370951 0.288540 10.320963 7.622046 -2.359665 1.751584 1.053340 -0.915971 0.000000 0.000000 0.000000 1.766520 1.045415 -0.901337 0.181824 13.330683 4.930963 8.143635 20.381262 -2.845094 -0.000001 0.000000 -0.000000 1.111787 3.693831 -8.692151 0.000000 0.000000 0.000000 -52.361709 5.340835 -50.878305 0.000105 -106.890500 0.000114 2.654533 -7.266169 -16.480627 -6.141204 -11.690810 -6.761678 9.914127 42.595515 3.409855 -0.422807 8.108100 27.509108 -0.000001 0.000000 0.000001 0.255313 3.378219 -45.814341 5.654093 5.847756 -88.067448 0.000001 0.000000 0.000000 -0.461472 3.841587 -39.722676 6.450757 5.820350 -95.892892 -0.000001 -0.000000 0.000001 0.469726 4.966832 -39.799444 8.181043 5.368615 -113.502991 0.000000 -0.000000 0.000001 -3.762423 9.063698 -45.253818 5.342526 5.828997 -85.005311 -0.000001 -0.000001 -0.000001 3.224297 13.415405 -5.279437 0.000000 0.000000 0.000000 -48.718162 27.637157 83.417585 0.000062 105.772248 -0.000050 -7.808816 17.876208 8.743105 -7.341083 13.749665 7.412313 9.855751 -44.489107 -3.903276 -0.115774 -14.513076 -28.973857 0.000004 0.000002 -0.000000 -0.124372 -2.384789 45.108874 4.500580 -4.654551 88.071137 -0.000001 0.000002 -0.000000 -0.761618 -2.932900 39.031068 5.133884 -4.632764 95.881670 0.000002 0.000001 -0.000002 0.154764 -4.068823 39.122675 6.509721 -4.273600 113.462857 0.000001 0.000000 -0.000000 -4.198874 -8.025523 44.637783 4.252925 -4.639627 85.014839 0.000000 -0.000002 0.000001 -41.197847 4.858269 17.436952 63.613547 -4.740168 4.103514 -19.263176 -7.595111 -15.009969 -2.539651 0.000001 0.000002 -0.000000 -0.000001 -0.000000 -31.502007 -6.095887 -30.885634 60.117624 -6.670726 -7.854405 -19.797653 -6.564333 23.629171 0.016915 -0.000009 0.028197 0.000000 0.000000 -0.000000 
0.445435 83.370605 2.392934 -4.760899 -47.873032 0.323727 10.886510 7.744109 -2.361368 1.532801 1.076089 -0.997166 0.000000 0.000000 0.000000 1.549265 1.064460 -0.986854 0.226162 13.411170 5.018147 7.791678 20.556339 -2.405648 -0.000000 0.000000 -0.000000 1.121903 3.790808 -8.776298 0.000000 0.000000 0.000000 -51.604074 5.785264 -50.502893 0.000062 -107.535174 0.000053 2.241383 -7.304523 -16.202086 -6.141205 -11.690805 -6.761683 9.914118 42.595519 3.409855 -0.422815 8.108096 27.509103 -0.000001 0.000002 0.000000 0.255313 3.378219 -45.814337 5.654092 5.847757 -88.067448 0.000001 0.000001 -0.000000 -0.461473 3.841591 -39.722676 6.450755 5.820349 -95.892892 0.000002 -0.000001 -0.000001 0.469724 4.966830 -39.799444 8.181043 5.368620 -113.502991 -0.000001 0.000000 0.000000 -3.762424 9.063699 -45.253818 5.342526 5.828997 -85.005311 0.000000 -0.000001 -0.000002 3.247806 13.568179 -5.304377 0.000000 0.000000 0.000000 -48.562088 27.955836 83.361264 0.000044 105.742004 -0.000049 -7.584234 18.241967 8.612267 -7.341081 13.749665 7.412319 9.855753 -44.489107 -3.903273 -0.115773 -14.513081 -28.973857 0.000001 0.000001 0.000000 -0.124372 -2.384789 45.108874 4.500582 -4.654549 88.071137 0.000001 -0.000002 0.000002 -0.761617 -2.932901 39.031068 5.133878 -4.632764 95.881670 -0.000000 -0.000000 -0.000000 0.154766 -4.068823 39.122675 6.509725 -4.273600 113.462857 -0.000001 0.000001 0.000000 -4.198873 -8.025524 44.637789 4.252924 -4.639629 85.014839 0.000000 0.000000 0.000001 -42.407456 4.561065 17.359018 66.143217 -4.264050 4.041134 -19.672087 -7.725931 -15.046763 -3.282872 -0.000029 0.000004 -0.000000 0.000000 0.000000 -32.112469 -5.687918 -31.646155 60.973973 -5.429838 -8.112390 -20.010610 -7.029114 23.895779 0.049241 -0.000026 0.068751 0.000000 0.000000 0.000000 
0.649653 82.626381 3.227270 -4.957621 -48.417480 0.260104 11.641917 7.894631 -2.251615 1.273220 1.104488 -1.097076 0.000000 0.000000 0.000000 1.291726 1.087411 -1.092369 0.274825 13.496294 5.103123 7.498177 20.732932 -2.024489 0.000002 0.000000 -0.000000 1.143914 3.872158 -8.884227 0.000000 0.000000 0.000000 -50.743326 6.363350 -50.123876 -0.000030 -108.195155 -0.000044 1.756014 -7.481387 -15.824184 -6.141204 -11.690806 -6.761675 9.914124 42.595519 3.409855 -0.422809 8.108104 27.509106 0.000001 0.000000 -0.000001 0.255315 3.378225 -45.814344 5.654091 5.847756 -88.067448 0.000001 -0.000002 0.000000 -0.461471 3.841591 -39.722676 6.450751 5.820349 -95.892892 -0.000001 0.000001 -0.000000 0.469725 4.966835 -39.799447 8.181043 5.368620 -113.502991 0.000001 -0.000000 0.000001 -3.762422 9.063698 -45.253825 5.342529 5.828997 -85.005311 0.000001 -0.000002 -0.000001 3.213303 13.679428 -5.375501 0.000000 0.000000 0.000000 -48.298522 28.360866 83.321293 -0.000121 105.668279 0.000102 -7.261227 18.739263 8.420974 -7.341081 13.749665 7.412317 9.855753 -44.489107 -3.903274 -0.115778 -14.513080 -28.973861 0.000001 0.000001 -0.000001 -0.124372 -2.384788 45.108878 4.500577 -4.654547 88.071137 -0.000001 0.000000 -0.000001 -0.761618 -2.932899 39.031068 5.133880 -4.632764 95.881670 0.000002 0.000003 0.000003 0.154765 -4.068821 39.122675 6.509725 -4.273602 113.462857 -0.000000 0.000001 0.000000 -4.198874 -8.025519 44.637783 4.252927 -4.639627 85.014846 0.000000 -0.000000 0.000000 -44.056380 4.023801 17.370938 69.390692 -3.837680 4.009400 -19.841592 -8.097241 -15.683911 -4.023160 -0.000004 -0.000000 -0.000000 0.000001 -0.000000 -32.720158 -5.227568 -32.515061 61.948791 -4.032406 -8.488487 -20.255659 -7.536112 24.246140 0.081574 -0.000088 0.109246 0.000000 -0.000001 0.000000 
